<mxfile host="app.diagrams.net" agent="Mozilla/5.0 (Windows NT 10.0; Win64; x64) AppleWebKit/537.36 (KHTML, like Gecko) Chrome/137.0.0.0 Safari/537.36 Edg/137.0.0.0" version="27.1.6">
  <diagram name="Página-1" id="IF9zF9d9jBglR46m6e4E">
    <mxGraphModel dx="2785" dy="2000" grid="1" gridSize="10" guides="1" tooltips="1" connect="1" arrows="1" fold="1" page="1" pageScale="1" pageWidth="827" pageHeight="1169" math="0" shadow="0">
      <root>
        <mxCell id="0" />
        <mxCell id="1" parent="0" />
        <mxCell id="DhlkckgEzZ8JU8sMvrn0-34" value="Communication" style="verticalAlign=top;align=left;spacingTop=8;spacingLeft=2;spacingRight=12;shape=cube;size=10;direction=south;fontStyle=4;html=1;whiteSpace=wrap;" vertex="1" parent="1">
          <mxGeometry x="527.5" y="110" width="872.5" height="310" as="geometry" />
        </mxCell>
        <mxCell id="DhlkckgEzZ8JU8sMvrn0-1" value="«Controller»&lt;br&gt;&lt;b&gt;Finite-State Machine&lt;br&gt;&lt;/b&gt;" style="html=1;dropTarget=0;whiteSpace=wrap;" vertex="1" parent="1">
          <mxGeometry x="788.75" y="-110" width="240" height="80" as="geometry" />
        </mxCell>
        <mxCell id="DhlkckgEzZ8JU8sMvrn0-2" value="" style="shape=module;jettyWidth=8;jettyHeight=4;" vertex="1" parent="DhlkckgEzZ8JU8sMvrn0-1">
          <mxGeometry x="1" width="20" height="20" relative="1" as="geometry">
            <mxPoint x="-27" y="7" as="offset" />
          </mxGeometry>
        </mxCell>
        <mxCell id="DhlkckgEzZ8JU8sMvrn0-6" value="Central Satellite" style="shape=umlFrame;whiteSpace=wrap;html=1;pointerEvents=0;" vertex="1" parent="1">
          <mxGeometry x="-50" y="10" width="470" height="285" as="geometry" />
        </mxCell>
        <mxCell id="DhlkckgEzZ8JU8sMvrn0-7" value="Probe (sonda)" style="shape=umlFrame;whiteSpace=wrap;html=1;pointerEvents=0;" vertex="1" parent="1">
          <mxGeometry x="480" y="-160" width="950" height="590" as="geometry" />
        </mxCell>
        <mxCell id="DhlkckgEzZ8JU8sMvrn0-10" value="API Gateway" style="html=1;whiteSpace=wrap;" vertex="1" parent="1">
          <mxGeometry x="10" y="390" width="260" height="100" as="geometry" />
        </mxCell>
        <mxCell id="DhlkckgEzZ8JU8sMvrn0-11" value="Module" style="shape=module;align=left;spacingLeft=20;align=center;verticalAlign=top;whiteSpace=wrap;html=1;" vertex="1" parent="1">
          <mxGeometry x="50" y="590" width="100" height="50" as="geometry" />
        </mxCell>
        <mxCell id="DhlkckgEzZ8JU8sMvrn0-12" value="Monitoring" style="shape=umlFrame;whiteSpace=wrap;html=1;pointerEvents=0;" vertex="1" parent="1">
          <mxGeometry x="670" y="455" width="300" height="200" as="geometry" />
        </mxCell>
        <mxCell id="DhlkckgEzZ8JU8sMvrn0-14" value="&lt;b&gt;Earth Satellites&lt;/b&gt;" style="html=1;dropTarget=0;whiteSpace=wrap;" vertex="1" parent="1">
          <mxGeometry x="-430" y="320" width="180" height="90" as="geometry" />
        </mxCell>
        <mxCell id="DhlkckgEzZ8JU8sMvrn0-15" value="" style="shape=module;jettyWidth=8;jettyHeight=4;" vertex="1" parent="DhlkckgEzZ8JU8sMvrn0-14">
          <mxGeometry x="1" width="20" height="20" relative="1" as="geometry">
            <mxPoint x="-27" y="7" as="offset" />
          </mxGeometry>
        </mxCell>
        <mxCell id="DhlkckgEzZ8JU8sMvrn0-16" value="&lt;b&gt;Earth Satellites&lt;/b&gt;" style="html=1;dropTarget=0;whiteSpace=wrap;" vertex="1" parent="1">
          <mxGeometry x="-220" y="330" width="180" height="90" as="geometry" />
        </mxCell>
        <mxCell id="DhlkckgEzZ8JU8sMvrn0-17" value="" style="shape=module;jettyWidth=8;jettyHeight=4;" vertex="1" parent="DhlkckgEzZ8JU8sMvrn0-16">
          <mxGeometry x="1" width="20" height="20" relative="1" as="geometry">
            <mxPoint x="-27" y="7" as="offset" />
          </mxGeometry>
        </mxCell>
        <mxCell id="DhlkckgEzZ8JU8sMvrn0-19" value="&amp;laquo;Annotation&amp;raquo;&lt;br/&gt;&lt;b&gt;Component&lt;/b&gt;" style="html=1;dropTarget=0;whiteSpace=wrap;" vertex="1" parent="1">
          <mxGeometry x="-280" y="140" width="180" height="90" as="geometry" />
        </mxCell>
        <mxCell id="DhlkckgEzZ8JU8sMvrn0-20" value="" style="shape=module;jettyWidth=8;jettyHeight=4;" vertex="1" parent="DhlkckgEzZ8JU8sMvrn0-19">
          <mxGeometry x="1" width="20" height="20" relative="1" as="geometry">
            <mxPoint x="-27" y="7" as="offset" />
          </mxGeometry>
        </mxCell>
        <mxCell id="DhlkckgEzZ8JU8sMvrn0-21" value="Controlador que permite a la sonda cierta autonomía" style="whiteSpace=wrap;html=1;shape=mxgraph.basic.document" vertex="1" parent="1">
          <mxGeometry x="430" y="630" width="100" height="100" as="geometry" />
        </mxCell>
        <mxCell id="DhlkckgEzZ8JU8sMvrn0-22" value="FSM Rules" style="strokeWidth=2;html=1;shape=mxgraph.flowchart.database;whiteSpace=wrap;" vertex="1" parent="1">
          <mxGeometry x="510" y="20" width="110" height="50" as="geometry" />
        </mxCell>
        <mxCell id="DhlkckgEzZ8JU8sMvrn0-23" value="«Controller»&lt;br&gt;&lt;b&gt;Rules Updater&lt;/b&gt;" style="html=1;dropTarget=0;whiteSpace=wrap;" vertex="1" parent="1">
          <mxGeometry x="660" y="10" width="130" height="50" as="geometry" />
        </mxCell>
        <mxCell id="DhlkckgEzZ8JU8sMvrn0-24" value="" style="shape=module;jettyWidth=8;jettyHeight=4;" vertex="1" parent="DhlkckgEzZ8JU8sMvrn0-23">
          <mxGeometry x="1" width="20" height="20" relative="1" as="geometry">
            <mxPoint x="-27" y="7" as="offset" />
          </mxGeometry>
        </mxCell>
        <mxCell id="DhlkckgEzZ8JU8sMvrn0-28" value="Movement Effectors" style="html=1;whiteSpace=wrap;" vertex="1" parent="1">
          <mxGeometry x="1290" y="-135" width="110" height="50" as="geometry" />
        </mxCell>
        <mxCell id="DhlkckgEzZ8JU8sMvrn0-29" value="Position Estimator&lt;br&gt;Module&lt;br&gt;(Kalman Filter Algorithm)" style="shape=module;align=left;spacingLeft=20;align=center;verticalAlign=top;whiteSpace=wrap;html=1;" vertex="1" parent="1">
          <mxGeometry x="530" y="-127.5" width="150" height="75" as="geometry" />
        </mxCell>
        <mxCell id="DhlkckgEzZ8JU8sMvrn0-30" value="Navigation Module" style="shape=module;align=left;spacingLeft=20;align=center;verticalAlign=top;whiteSpace=wrap;html=1;" vertex="1" parent="1">
          <mxGeometry x="1107.5" y="-127.5" width="100" height="50" as="geometry" />
        </mxCell>
        <mxCell id="DhlkckgEzZ8JU8sMvrn0-40" value="«Component»&lt;br&gt;Probe Self Status" style="html=1;dropTarget=0;whiteSpace=wrap;" vertex="1" parent="1">
          <mxGeometry x="1020" y="10" width="150" height="70" as="geometry" />
        </mxCell>
        <mxCell id="DhlkckgEzZ8JU8sMvrn0-41" value="" style="shape=module;jettyWidth=8;jettyHeight=4;" vertex="1" parent="DhlkckgEzZ8JU8sMvrn0-40">
          <mxGeometry x="1" width="20" height="20" relative="1" as="geometry">
            <mxPoint x="-27" y="7" as="offset" />
          </mxGeometry>
        </mxCell>
        <mxCell id="DhlkckgEzZ8JU8sMvrn0-42" value="Event Receiver" style="html=1;whiteSpace=wrap;" vertex="1" parent="1">
          <mxGeometry x="550" y="280" width="110" height="50" as="geometry" />
        </mxCell>
        <mxCell id="DhlkckgEzZ8JU8sMvrn0-43" value="Event Publisher" style="html=1;whiteSpace=wrap;" vertex="1" parent="1">
          <mxGeometry x="550" y="190" width="110" height="50" as="geometry" />
        </mxCell>
        <mxCell id="DhlkckgEzZ8JU8sMvrn0-44" value="«Controller»&lt;br&gt;Event Subscription Controller" style="html=1;dropTarget=0;whiteSpace=wrap;" vertex="1" parent="1">
          <mxGeometry x="770" y="300" width="130" height="70" as="geometry" />
        </mxCell>
        <mxCell id="DhlkckgEzZ8JU8sMvrn0-45" value="" style="shape=module;jettyWidth=8;jettyHeight=4;" vertex="1" parent="DhlkckgEzZ8JU8sMvrn0-44">
          <mxGeometry x="1" width="20" height="20" relative="1" as="geometry">
            <mxPoint x="-27" y="7" as="offset" />
          </mxGeometry>
        </mxCell>
        <mxCell id="DhlkckgEzZ8JU8sMvrn0-46" value="Security" style="verticalAlign=top;align=left;spacingTop=8;spacingLeft=2;spacingRight=12;shape=cube;size=10;direction=south;fontStyle=4;html=1;whiteSpace=wrap;" vertex="1" parent="1">
          <mxGeometry x="940" y="140" width="440" height="255" as="geometry" />
        </mxCell>
        <mxCell id="DhlkckgEzZ8JU8sMvrn0-47" value="&lt;div&gt;&lt;br&gt;&lt;/div&gt;ED25519" style="shape=module;align=left;spacingLeft=20;align=center;verticalAlign=top;whiteSpace=wrap;html=1;" vertex="1" parent="1">
          <mxGeometry x="1085" y="295" width="150" height="65" as="geometry" />
        </mxCell>
        <mxCell id="DhlkckgEzZ8JU8sMvrn0-48" value="«Sensor»&lt;br&gt;&lt;b&gt;Data Recolection&lt;/b&gt;" style="html=1;dropTarget=0;whiteSpace=wrap;" vertex="1" parent="1">
          <mxGeometry x="1230" y="-30" width="130" height="70" as="geometry" />
        </mxCell>
        <mxCell id="DhlkckgEzZ8JU8sMvrn0-49" value="" style="shape=module;jettyWidth=8;jettyHeight=4;" vertex="1" parent="DhlkckgEzZ8JU8sMvrn0-48">
          <mxGeometry x="1" width="20" height="20" relative="1" as="geometry">
            <mxPoint x="-27" y="7" as="offset" />
          </mxGeometry>
        </mxCell>
        <mxCell id="DhlkckgEzZ8JU8sMvrn0-50" value="Public - Private Key" style="strokeWidth=2;html=1;shape=mxgraph.flowchart.database;whiteSpace=wrap;" vertex="1" parent="1">
          <mxGeometry x="1210" y="180" width="113" height="50" as="geometry" />
        </mxCell>
        <mxCell id="DhlkckgEzZ8JU8sMvrn0-51" value="«Component»&lt;div&gt;Authentication Gate&lt;/div&gt;" style="html=1;dropTarget=0;whiteSpace=wrap;" vertex="1" parent="1">
          <mxGeometry x="975" y="180" width="130" height="70" as="geometry" />
        </mxCell>
        <mxCell id="DhlkckgEzZ8JU8sMvrn0-52" value="" style="shape=module;jettyWidth=8;jettyHeight=4;" vertex="1" parent="DhlkckgEzZ8JU8sMvrn0-51">
          <mxGeometry x="1" width="20" height="20" relative="1" as="geometry">
            <mxPoint x="-27" y="7" as="offset" />
          </mxGeometry>
        </mxCell>
        <mxCell id="DhlkckgEzZ8JU8sMvrn0-53" value="Event Gate" style="html=1;whiteSpace=wrap;" vertex="1" parent="1">
          <mxGeometry x="730" y="160" width="190" height="100" as="geometry" />
        </mxCell>
      </root>
    </mxGraphModel>
  </diagram>
</mxfile>
